<?xml version="1.0" encoding="UTF-8" standalone="no"?>
<!-- Created with Inkscape (http://www.inkscape.org/) -->

<svg
   xmlns:dc="http://purl.org/dc/elements/1.1/"
   xmlns:cc="http://creativecommons.org/ns#"
   xmlns:rdf="http://www.w3.org/1999/02/22-rdf-syntax-ns#"
   xmlns:svg="http://www.w3.org/2000/svg"
   xmlns="http://www.w3.org/2000/svg"
   xmlns:sodipodi="http://sodipodi.sourceforge.net/DTD/sodipodi-0.dtd"
   xmlns:inkscape="http://www.inkscape.org/namespaces/inkscape"
   width="640"
   height="206.48805"
   viewBox="0 0 640 206.48806"
   id="svg2"
   version="1.1"
   inkscape:version="0.91 r13725"
   sodipodi:docname="ModernDeck Final (Text).svg">
  <sodipodi:namedview
     id="base"
     pagecolor="#ffffff"
     bordercolor="#666666"
     borderopacity="1.0"
     inkscape:pageopacity="1"
     inkscape:pageshadow="2"
     inkscape:zoom="2"
     inkscape:cx="267.64755"
     inkscape:cy="6.1946837"
     inkscape:document-units="px"
     inkscape:current-layer="layer1"
     showgrid="false"
     units="px"
     inkscape:snap-bbox="true"
     inkscape:bbox-paths="true"
     inkscape:bbox-nodes="true"
     inkscape:object-paths="true"
     inkscape:snap-intersection-paths="true"
     inkscape:object-nodes="true"
     inkscape:snap-smooth-nodes="true"
     inkscape:snap-midpoints="true"
     showguides="false"
     inkscape:guide-bbox="true"
     inkscape:snap-bbox-edge-midpoints="true"
     inkscape:snap-center="true"
     inkscape:window-width="1920"
     inkscape:window-height="1001"
     inkscape:window-x="-9"
     inkscape:window-y="-9"
     inkscape:window-maximized="1"
     fit-margin-top="64"
     fit-margin-left="64"
     fit-margin-right="64"
     fit-margin-bottom="64"
     inkscape:snap-page="true">
    <inkscape:grid
       type="xygrid"
       id="grid4136"
       originx="32.000019"
       originy="-157.66145" />
    <sodipodi:guide
       position="71.878129,-131.57574"
       orientation="0,1"
       id="guide4205" />
    <sodipodi:guide
       position="70.787129,-149.56145"
       orientation="0,1"
       id="guide4210"
       inkscape:label=""
       inkscape:color="rgb(0,0,255)" />
    <sodipodi:guide
       position="78.900419,-141.36457"
       orientation="0,1"
       id="guide4215" />
    <sodipodi:guide
       position="79.097689,-140.7259"
       orientation="0,1"
       id="guide4220" />
    <sodipodi:guide
       position="86.937529,-149.3802"
       orientation="0,1"
       id="guide4222" />
    <sodipodi:guide
       position="92.660149,-147.36145"
       orientation="0,1"
       id="guide4245"
       inkscape:label=""
       inkscape:color="rgb(0,0,255)" />
    <sodipodi:guide
       position="84.985909,-142.96145"
       orientation="0,1"
       id="guide4247"
       inkscape:label=""
       inkscape:color="rgb(0,0,255)" />
    <sodipodi:guide
       position="103.98444,-145.16145"
       orientation="1,0"
       id="guide4284" />
    <sodipodi:guide
       position="106.35549,-145.1439"
       orientation="1,0"
       id="guide4286" />
    <sodipodi:guide
       position="118.65894,-149.08332"
       orientation="-0.8660254,0.5"
       id="guide4313"
       inkscape:label=""
       inkscape:color="rgb(0,0,255)" />
    <sodipodi:guide
       position="113.61322,-145.88644"
       orientation="0,1"
       id="guide4315" />
    <sodipodi:guide
       position="130.7383,-145.2923"
       orientation="1,0"
       id="guide4398" />
    <sodipodi:guide
       position="133.11135,-145.2923"
       orientation="1,0"
       id="guide4400" />
    <sodipodi:guide
       position="171.80471,-144.41535"
       orientation="-0.73727734,0.67559021"
       id="guide4459"
       inkscape:label=""
       inkscape:color="rgb(0,0,255)" />
    <sodipodi:guide
       position="167.76452,-141.36457"
       orientation="0.76604444,0.64278761"
       id="guide4461"
       inkscape:label=""
       inkscape:color="rgb(0,0,255)" />
    <sodipodi:guide
       position="136.44532,-133.74544"
       orientation="0,1"
       id="guide4493" />
    <sodipodi:guide
       position="69.000019,-156.68195"
       orientation="0.06104854,0.9981348"
       id="guide4501"
       inkscape:label=""
       inkscape:color="rgb(0,0,255)" />
    <sodipodi:guide
       position="69.671969,-153.66145"
       orientation="0.034899497,0.99939083"
       id="guide4505"
       inkscape:label=""
       inkscape:color="rgb(0,0,255)" />
    <sodipodi:guide
       position="289.20145,-140.31307"
       orientation="-0.86602573,0.49999944"
       id="guide4232" />
    <sodipodi:guide
       position="289.98086,-134.46276"
       orientation="0,1"
       id="guide4298" />
    <sodipodi:guide
       position="336.26033,-142.96145"
       orientation="0.90630779,0.42261826"
       id="guide4312"
       inkscape:label=""
       inkscape:color="rgb(0,0,255)" />
    <sodipodi:guide
       position="296.22457,-138.70313"
       orientation="1,0"
       id="guide4319" />
    <sodipodi:guide
       position="336.26033,-145.16645"
       orientation="1,0"
       id="guide4470" />
    <sodipodi:guide
       position="336.26033,-145.1665"
       orientation="0,1"
       id="guide4473" />
  </sodipodi:namedview>
  <defs
     id="defs4" />
  <metadata
     id="metadata7">
    <rdf:RDF>
      <cc:Work
         rdf:about="">
        <dc:format>image/svg+xml</dc:format>
        <dc:type
           rdf:resource="http://purl.org/dc/dcmitype/StillImage" />
        <dc:title></dc:title>
      </cc:Work>
    </rdf:RDF>
  </metadata>
  <g
     inkscape:label="Layer 1"
     inkscape:groupmode="layer"
     id="layer1"
     transform="translate(32.000019,-688.21268)">
    <path
       style="color:#000000;font-style:normal;font-variant:normal;font-weight:normal;font-stretch:normal;font-size:medium;line-height:normal;font-family:sans-serif;text-indent:0;text-align:start;text-decoration:none;text-decoration-line:none;text-decoration-style:solid;text-decoration-color:#000000;letter-spacing:normal;word-spacing:normal;text-transform:none;direction:ltr;block-progression:tb;writing-mode:lr-tb;baseline-shift:baseline;text-anchor:start;white-space:normal;clip-rule:nonzero;display:inline;overflow:visible;visibility:visible;opacity:1;isolation:auto;mix-blend-mode:normal;color-interpolation:sRGB;color-interpolation-filters:linearRGB;solid-color:#000000;solid-opacity:1;fill:#333333;fill-opacity:1;fill-rule:evenodd;stroke:none;stroke-width:2.25000024;stroke-linecap:butt;stroke-linejoin:miter;stroke-miterlimit:4;stroke-dasharray:none;stroke-dashoffset:0;stroke-opacity:1;color-rendering:auto;image-rendering:auto;shape-rendering:auto;text-rendering:auto;enable-background:accumulate"
       d="m 282.81766,1029.1639 c -1.33386,0.2408 -2.68007,0.3973 -4.125,0.5668 l 0,2.0585 1.875,-0.1225 0,12.4131 2.25,0 z"
       id="path4314"
       inkscape:connector-curvature="0"
       sodipodi:nodetypes="ccccccc"
       inkscape:export-filename="C:\Users\agred\Desktop\path4490.png"
       inkscape:export-xdpi="273.50751"
       inkscape:export-ydpi="273.50751" />
    <path
       style="color:#000000;font-style:normal;font-variant:normal;font-weight:normal;font-stretch:normal;font-size:medium;line-height:normal;font-family:sans-serif;text-indent:0;text-align:start;text-decoration:none;text-decoration-line:none;text-decoration-style:solid;text-decoration-color:#000000;letter-spacing:normal;word-spacing:normal;text-transform:none;direction:ltr;block-progression:tb;writing-mode:lr-tb;baseline-shift:baseline;text-anchor:start;white-space:normal;clip-rule:nonzero;display:inline;overflow:visible;visibility:visible;opacity:1;isolation:auto;mix-blend-mode:normal;color-interpolation:sRGB;color-interpolation-filters:linearRGB;solid-color:#000000;solid-opacity:1;fill:#b3b3b3;fill-opacity:1;fill-rule:evenodd;stroke:none;stroke-width:2.5;stroke-linecap:butt;stroke-linejoin:bevel;stroke-miterlimit:17;stroke-dasharray:none;stroke-dashoffset:0;stroke-opacity:1;color-rendering:auto;image-rendering:auto;shape-rendering:auto;text-rendering:auto;enable-background:accumulate"
       d="m 255.25391,347.20508 c -2.43702,-1e-4 -4.41415,1.97501 -4.41407,4.41211 -8e-5,2.437 1.97705,4.41416 4.41407,4.41406 1.49514,10e-5 2.81126,-0.74737 3.60937,-1.88477 l -1.72656,-1.20898 c -0.37482,0.6373 -1.01224,0.91202 -1.78125,0.91202 -1.08643,0 -1.98485,-0.57055 -2.30859,-1.49014 l 4.33398,0 1.875,0 0.33594,0 c 0.0412,-0.2421 0.0742,-0.48829 0.0742,-0.74219 8e-5,-2.4371 -1.97508,-4.41221 -4.41211,-4.41211 z m 0.002,2.03125 c 1.07834,0 1.72452,0.64199 1.99414,1.46289 l -4.16406,0 c 0.3191,-0.8219 1.06703,-1.46289 2.16992,-1.46289 z"
       id="path4200"
       transform="translate(-32.00005,688.21268)"
       inkscape:connector-curvature="0"
       sodipodi:nodetypes="cccccsccccccsccs"
       inkscape:export-filename="C:\Users\agred\Desktop\path4190.png"
       inkscape:export-xdpi="137.1194"
       inkscape:export-ydpi="137.1194" />
    <rect
       style="fill:#42a5f5;fill-opacity:1;stroke:none"
       id="rect4159"
       width="640"
       height="206.48805"
       x="-32.00005"
       y="688.21271" />
    <text
       xml:space="preserve"
       style="font-style:normal;font-weight:normal;font-size:1.25px;line-height:125%;font-family:sans-serif;letter-spacing:0px;word-spacing:0px;fill:#000000;fill-opacity:1;stroke:none;stroke-width:1px;stroke-linecap:butt;stroke-linejoin:miter;stroke-opacity:1"
       x="5"
       y="1036.3622"
       id="text4161"
       sodipodi:linespacing="125%"><tspan
         sodipodi:role="line"
         id="tspan4163"
         x="5"
         y="1036.3622" /></text>
    <text
       xml:space="preserve"
       style="font-style:normal;font-weight:normal;font-size:0.3125px;line-height:125%;font-family:sans-serif;letter-spacing:0px;word-spacing:0px;fill:#000000;fill-opacity:1;stroke:none;stroke-width:1px;stroke-linecap:butt;stroke-linejoin:miter;stroke-opacity:1"
       x="41.355469"
       y="1049.4755"
       id="text5018"
       sodipodi:linespacing="125%"><tspan
         sodipodi:role="line"
         x="41.355469"
         y="1049.4755"
         id="tspan5022" /></text>
    <path
       style="color:#000000;font-style:normal;font-variant:normal;font-weight:normal;font-stretch:normal;font-size:medium;line-height:normal;font-family:sans-serif;text-indent:0;text-align:start;text-decoration:none;text-decoration-line:none;text-decoration-style:solid;text-decoration-color:#000000;letter-spacing:normal;word-spacing:normal;text-transform:none;direction:ltr;block-progression:tb;writing-mode:lr-tb;baseline-shift:baseline;text-anchor:start;white-space:normal;clip-rule:nonzero;display:inline;overflow:visible;visibility:visible;opacity:1;isolation:auto;mix-blend-mode:normal;color-interpolation:sRGB;color-interpolation-filters:linearRGB;solid-color:#000000;solid-opacity:1;fill:#b3b3b3;fill-opacity:1;fill-rule:evenodd;stroke:none;stroke-width:2.5;stroke-linecap:butt;stroke-linejoin:bevel;stroke-miterlimit:17;stroke-dasharray:none;stroke-dashoffset:0;stroke-opacity:1;color-rendering:auto;image-rendering:auto;shape-rendering:auto;text-rendering:auto;enable-background:accumulate"
       d="m 145.27495,1028.4483 c 0,0 0.006,0.317 0.002,0.476 l -0.95,15.1395 2.60226,0 0.52865,-9.8316 c 0.006,-0.2304 0.024,-0.4381 -0.01,-0.6906 0,0 0.15691,0.3526 0.23993,0.5268 1.14403,2.3994 1.74702,3.6701 3.45084,7.1259 l 1.0495,0 1.04948,0 c 1.70381,-3.4558 2.30681,-4.7265 3.45082,-7.1259 0.083,-0.1742 0.23995,-0.5268 0.23995,-0.5268 -0.0335,0.2525 -0.0141,0.4602 -0.01,0.6906 l 0.52865,9.8316 2.60226,0 -0.95,-15.1395 c -0.004,-0.159 0.002,-0.476 0.002,-0.476 l -2.5496,0 c -0.096,0.2686 -0.17475,0.4994 -0.277,0.7432 -1.20697,2.8776 -2.13232,5.1145 -3.87609,8.4739 -0.0817,0.188 -0.15224,0.3265 -0.21067,0.5599 -0.0584,-0.2334 -0.12899,-0.3719 -0.21068,-0.5599 -1.74377,-3.3594 -2.66911,-5.5963 -3.87609,-8.4739 -0.10221,-0.2438 -0.18098,-0.4746 -0.277,-0.7432 l -2.5496,0 z"
       id="path4210"
       inkscape:export-filename="C:\Users\agred\Desktop\path4190.png"
       inkscape:export-xdpi="137.1194"
       inkscape:export-ydpi="137.1194" />
    <path
       style="color:#000000;font-style:normal;font-variant:normal;font-weight:normal;font-stretch:normal;font-size:medium;line-height:normal;font-family:sans-serif;text-indent:0;text-align:start;text-decoration:none;text-decoration-line:none;text-decoration-style:solid;text-decoration-color:#000000;letter-spacing:normal;word-spacing:normal;text-transform:none;direction:ltr;block-progression:tb;writing-mode:lr-tb;baseline-shift:baseline;text-anchor:start;white-space:normal;clip-rule:nonzero;display:inline;overflow:visible;visibility:visible;opacity:1;isolation:auto;mix-blend-mode:normal;color-interpolation:sRGB;color-interpolation-filters:linearRGB;solid-color:#000000;solid-opacity:1;fill:#b3b3b3;fill-opacity:1;fill-rule:evenodd;stroke:none;stroke-width:2.5;stroke-linecap:butt;stroke-linejoin:bevel;stroke-miterlimit:17;stroke-dasharray:none;stroke-dashoffset:0;stroke-opacity:1;color-rendering:auto;image-rendering:auto;shape-rendering:auto;text-rendering:auto;enable-background:accumulate"
       d="M 211.04297 340.23633 L 208.77734 340.43359 L 208.77734 348.0625 C 208.26127 347.5464 207.47467 347.20693 206.73242 347.20703 C 204.29539 347.20693 202.32022 349.18204 202.32031 351.61914 C 202.32022 354.05614 204.29539 356.0333 206.73242 356.0332 C 207.32135 356.0332 208.09826 355.85107 208.77734 355.17188 L 208.89844 355.85156 L 211.04297 355.85156 L 211.04297 340.23633 z M 206.73438 349.33789 C 207.54583 349.33789 208.65815 349.98222 208.77734 351.35742 C 208.80384 351.66312 208.79191 351.73006 208.75781 352.03516 C 208.6361 353.12776 207.84938 353.95508 206.73438 353.95508 C 205.64016 353.95508 204.68945 353.09691 204.68945 351.63281 C 204.68945 350.36721 205.44604 349.33789 206.73438 349.33789 z "
       transform="translate(-32.00005,688.21268)"
       id="path4208"
       inkscape:export-filename="C:\Users\agred\Desktop\path4190.png"
       inkscape:export-xdpi="137.1194"
       inkscape:export-ydpi="137.1194" />
    <path
       style="color:#000000;font-style:normal;font-variant:normal;font-weight:normal;font-stretch:normal;font-size:medium;line-height:normal;font-family:sans-serif;text-indent:0;text-align:start;text-decoration:none;text-decoration-line:none;text-decoration-style:solid;text-decoration-color:#000000;letter-spacing:normal;word-spacing:normal;text-transform:none;direction:ltr;block-progression:tb;writing-mode:lr-tb;baseline-shift:baseline;text-anchor:start;white-space:normal;clip-rule:nonzero;display:inline;overflow:visible;visibility:visible;opacity:1;isolation:auto;mix-blend-mode:normal;color-interpolation:sRGB;color-interpolation-filters:linearRGB;solid-color:#000000;solid-opacity:1;fill:#b3b3b3;fill-opacity:1;fill-rule:evenodd;stroke:none;stroke-width:2.5;stroke-linecap:butt;stroke-linejoin:bevel;stroke-miterlimit:17;stroke-dasharray:none;stroke-dashoffset:0;stroke-opacity:1;color-rendering:auto;image-rendering:auto;shape-rendering:auto;text-rendering:auto;enable-background:accumulate"
       d="M 237.88867 340.23633 L 237.88867 342.40234 L 237.88867 355.85156 L 240.1543 355.85156 L 241.15234 355.85156 C 246.11855 355.85186 250.08398 354.5278 250.08398 347.8457 C 250.08398 342.4807 247.3041 340.23613 242.33789 340.23633 L 237.88867 340.23633 z M 240.1543 342.40234 L 241.12109 342.40234 C 244.78206 342.40224 247.61023 342.81476 247.71484 347.66016 C 247.82757 352.88136 244.87626 353.68379 241.21289 353.68359 L 240.1543 353.68359 L 240.1543 342.40234 z "
       transform="translate(-32.00005,688.21268)"
       id="path4206"
       inkscape:export-filename="C:\Users\agred\Desktop\path4190.png"
       inkscape:export-xdpi="137.1194"
       inkscape:export-ydpi="137.1194" />
    <path
       style="color:#000000;font-style:normal;font-variant:normal;font-weight:normal;font-stretch:normal;font-size:medium;line-height:normal;font-family:sans-serif;text-indent:0;text-align:start;text-decoration:none;text-decoration-line:none;text-decoration-style:solid;text-decoration-color:#000000;letter-spacing:normal;word-spacing:normal;text-transform:none;direction:ltr;block-progression:tb;writing-mode:lr-tb;baseline-shift:baseline;text-anchor:start;white-space:normal;clip-rule:nonzero;display:inline;overflow:visible;visibility:visible;opacity:1;isolation:auto;mix-blend-mode:normal;color-interpolation:sRGB;color-interpolation-filters:linearRGB;solid-color:#000000;solid-opacity:1;fill:#b3b3b3;fill-opacity:1;fill-rule:evenodd;stroke:none;stroke-width:2.5;stroke-linecap:butt;stroke-linejoin:bevel;stroke-miterlimit:17;stroke-dasharray:none;stroke-dashoffset:0;stroke-opacity:1;color-rendering:auto;image-rendering:auto;shape-rendering:auto;text-rendering:auto;enable-background:accumulate"
       d="m 240.05085,1028.4483 -2.26673,0.1989 0,15.4166 2.26673,0 0,-1.9156 1.81808,-1.3558 2.44621,3.2714 3.06069,0 -3.96192,-4.9587 3.3767,-3.6869 -3.17384,0 -3.56592,4.0009 0,-10.9729 z"
       id="path4204"
       inkscape:export-filename="C:\Users\agred\Desktop\path4190.png"
       inkscape:export-xdpi="137.1194"
       inkscape:export-ydpi="137.1194" />
    <path
       style="color:#000000;font-style:normal;font-variant:normal;font-weight:normal;font-stretch:normal;font-size:medium;line-height:normal;font-family:sans-serif;text-indent:0;text-align:start;text-decoration:none;text-decoration-line:none;text-decoration-style:solid;text-decoration-color:#000000;letter-spacing:normal;word-spacing:normal;text-transform:none;direction:ltr;block-progression:tb;writing-mode:lr-tb;baseline-shift:baseline;text-anchor:start;white-space:normal;clip-rule:nonzero;display:inline;overflow:visible;visibility:visible;opacity:1;isolation:auto;mix-blend-mode:normal;color-interpolation:sRGB;color-interpolation-filters:linearRGB;solid-color:#000000;solid-opacity:1;fill:#b3b3b3;fill-opacity:1;fill-rule:evenodd;stroke:none;stroke-width:2.5;stroke-linecap:butt;stroke-linejoin:bevel;stroke-miterlimit:17;stroke-dasharray:none;stroke-dashoffset:0;stroke-opacity:1;color-rendering:auto;image-rendering:auto;shape-rendering:auto;text-rendering:auto;enable-background:accumulate"
       d="M 197.23047 347.20508 C 194.79344 347.20498 192.81828 349.18009 192.81836 351.61719 C 192.81828 354.05419 194.79344 356.03135 197.23047 356.03125 C 199.66748 356.03135 201.64265 354.05419 201.64258 351.61719 C 201.64265 349.18009 199.66748 347.20498 197.23047 347.20508 z M 197.23242 349.4375 C 198.36046 349.4375 199.27553 350.41951 199.27539 351.63281 C 199.27553 352.84661 198.36046 353.82948 197.23242 353.83008 C 196.10348 353.83008 195.18541 352.84741 195.18555 351.63281 C 195.18541 350.41841 196.10348 349.4369 197.23242 349.4375 z "
       transform="translate(-32.00005,688.21268)"
       id="path4198"
       inkscape:export-filename="C:\Users\agred\Desktop\path4190.png"
       inkscape:export-xdpi="137.1194"
       inkscape:export-ydpi="137.1194" />
    <path
       style="color:#000000;font-style:normal;font-variant:normal;font-weight:normal;font-stretch:normal;font-size:medium;line-height:normal;font-family:sans-serif;text-indent:0;text-align:start;text-decoration:none;text-decoration-line:none;text-decoration-style:solid;text-decoration-color:#000000;letter-spacing:normal;word-spacing:normal;text-transform:none;direction:ltr;block-progression:tb;writing-mode:lr-tb;baseline-shift:baseline;text-anchor:start;white-space:normal;clip-rule:nonzero;display:inline;overflow:visible;visibility:visible;opacity:1;isolation:auto;mix-blend-mode:normal;color-interpolation:sRGB;color-interpolation-filters:linearRGB;solid-color:#000000;solid-opacity:1;fill:#b3b3b3;fill-opacity:1;fill-rule:evenodd;stroke:none;stroke-width:2.5;stroke-linecap:butt;stroke-linejoin:bevel;stroke-miterlimit:17;stroke-dasharray:none;stroke-dashoffset:0;stroke-opacity:1;color-rendering:auto;image-rendering:auto;shape-rendering:auto;text-rendering:auto;enable-background:accumulate"
       d="m 216.25586,347.20508 c -2.43702,-1e-4 -4.41219,1.97501 -4.41211,4.41211 -8e-5,2.437 1.97509,4.41416 4.41211,4.41406 1.49514,10e-5 2.81323,-0.74727 3.61133,-1.88477 l -1.72657,-1.20898 c -0.3748,0.6373 -1.0142,0.91202 -1.7832,0.91202 -1.08644,0 -1.9829,-0.57065 -2.30664,-1.49014 l 4.33399,0 1.875,0 0.33398,0 c 0.0412,-0.2422 0.0742,-0.48829 0.0742,-0.74219 1e-4,-2.4371 -1.97508,-4.41221 -4.41211,-4.41211 z m 0.002,2.03125 c 1.07834,0 1.72648,0.64209 1.9961,1.46289 l -4.16407,0 c 0.31912,-0.8218 1.06509,-1.46289 2.16797,-1.46289 z"
       transform="translate(-32.00005,688.21268)"
       id="path4196"
       inkscape:connector-curvature="0"
       sodipodi:nodetypes="cccccsccccccsccs"
       inkscape:export-filename="C:\Users\agred\Desktop\path4190.png"
       inkscape:export-xdpi="137.1194"
       inkscape:export-ydpi="137.1194" />
    <path
       style="color:#000000;font-style:normal;font-variant:normal;font-weight:normal;font-stretch:normal;font-size:medium;line-height:normal;font-family:sans-serif;text-indent:0;text-align:start;text-decoration:none;text-decoration-line:none;text-decoration-style:solid;text-decoration-color:#000000;letter-spacing:normal;word-spacing:normal;text-transform:none;direction:ltr;block-progression:tb;writing-mode:lr-tb;baseline-shift:baseline;text-anchor:start;white-space:normal;clip-rule:nonzero;display:inline;overflow:visible;visibility:visible;opacity:1;isolation:auto;mix-blend-mode:normal;color-interpolation:sRGB;color-interpolation-filters:linearRGB;solid-color:#000000;solid-opacity:1;fill:#b3b3b3;fill-opacity:1;fill-rule:evenodd;stroke:none;stroke-width:2.5;stroke-linecap:butt;stroke-linejoin:bevel;stroke-miterlimit:17;stroke-dasharray:none;stroke-dashoffset:0;stroke-opacity:1;color-rendering:auto;image-rendering:auto;shape-rendering:auto;text-rendering:auto;enable-background:accumulate"
       d="m 232.9034,1035.4182 c -2.43702,-10e-5 -4.41262,1.9753 -4.41254,4.4124 -8e-5,2.437 1.97552,4.4127 4.41254,4.4126 1.42575,0 2.68122,-0.6869 3.4879,-1.7361 l -1.81807,-1.3968 c -0.36964,0.5641 -0.97725,0.9341 -1.66788,0.9345 -1.12894,0 -2.04644,-0.9819 -2.0463,-2.1966 -1.5e-4,-1.2143 0.91736,-2.1971 2.0463,-2.1965 0.64892,2e-4 1.21962,0.3315 1.59375,0.8389 l 1.7693,-1.4845 c -0.80944,-0.9633 -2.00837,-1.588 -3.365,-1.5879 z"
       id="path4194"
       inkscape:export-filename="C:\Users\agred\Desktop\path4190.png"
       inkscape:export-xdpi="137.1194"
       inkscape:export-ydpi="137.1194" />
    <path
       style="color:#000000;font-style:normal;font-variant:normal;font-weight:normal;font-stretch:normal;font-size:medium;line-height:normal;font-family:sans-serif;text-indent:0;text-align:start;text-decoration:none;text-decoration-line:none;text-decoration-style:solid;text-decoration-color:#000000;letter-spacing:normal;word-spacing:normal;text-transform:none;direction:ltr;block-progression:tb;writing-mode:lr-tb;baseline-shift:baseline;text-anchor:start;white-space:normal;clip-rule:nonzero;display:inline;overflow:visible;visibility:visible;opacity:1;isolation:auto;mix-blend-mode:normal;color-interpolation:sRGB;color-interpolation-filters:linearRGB;solid-color:#000000;solid-opacity:1;fill:#b3b3b3;fill-opacity:1;fill-rule:evenodd;stroke:none;stroke-width:2.5;stroke-linecap:butt;stroke-linejoin:bevel;stroke-miterlimit:17;stroke-dasharray:none;stroke-dashoffset:0;stroke-opacity:1;color-rendering:auto;image-rendering:auto;shape-rendering:auto;text-rendering:auto;enable-background:accumulate"
       d="m 193.57681,1035.5664 c -0.74225,-10e-5 -1.52828,0.3403 -2.04435,0.8564 l -0.20288,-0.6379 -2.06387,0.099 0,8.1774 2.26675,0 0,-4.3422 c 0.11918,-1.3751 1.23094,-2.019 2.0424,-2.019 0.49091,0 0.8986,0.1558 1.22115,0.4115 l 1.08655,-1.8804 c -0.67248,-0.4146 -1.45771,-0.6653 -2.30575,-0.6652 z"
       id="path4192"
       inkscape:export-filename="C:\Users\agred\Desktop\path4190.png"
       inkscape:export-xdpi="137.1194"
       inkscape:export-ydpi="137.1194" />
    <path
       style="color:#000000;font-style:normal;font-variant:normal;font-weight:normal;font-stretch:normal;font-size:medium;line-height:normal;font-family:sans-serif;text-indent:0;text-align:start;text-decoration:none;text-decoration-line:none;text-decoration-style:solid;text-decoration-color:#000000;letter-spacing:normal;word-spacing:normal;text-transform:none;direction:ltr;block-progression:tb;writing-mode:lr-tb;baseline-shift:baseline;text-anchor:start;white-space:normal;clip-rule:nonzero;display:inline;overflow:visible;visibility:visible;opacity:1;isolation:auto;mix-blend-mode:normal;color-interpolation:sRGB;color-interpolation-filters:linearRGB;solid-color:#000000;solid-opacity:1;fill:#b3b3b3;fill-opacity:1;fill-rule:evenodd;stroke:none;stroke-width:2.5;stroke-linecap:butt;stroke-linejoin:bevel;stroke-miterlimit:17;stroke-dasharray:none;stroke-dashoffset:0;stroke-opacity:1;color-rendering:auto;image-rendering:auto;shape-rendering:auto;text-rendering:auto;enable-background:accumulate"
       d="m 200.95445,1035.5664 c -0.74226,-10e-5 -1.52828,0.3403 -2.04436,0.8564 l -0.20287,-0.6379 -2.06388,0.099 0,8.1774 2.26675,0 0,-4.3422 c 0,-1.4083 0.78904,-2.019 1.74395,-2.019 1.34873,0 1.84538,0.9565 1.84538,2.3076 l 0,4.0536 2.27065,0 0,-4.0745 c 0,-3.1722 -1.45333,-4.4208 -3.81562,-4.4208 z"
       id="path4190"
       inkscape:connector-curvature="0"
       sodipodi:nodetypes="ccccccsssccscc"
       inkscape:export-filename="C:\Users\agred\Desktop\path4190.png"
       inkscape:export-xdpi="137.1194"
       inkscape:export-ydpi="137.1194" />
    <g
       style="font-style:normal;font-weight:normal;font-size:20.91803932px;line-height:125%;font-family:sans-serif;letter-spacing:0px;word-spacing:0px;fill:#000000;fill-opacity:1;stroke:none;stroke-width:1px;stroke-linecap:butt;stroke-linejoin:miter;stroke-opacity:1"
       id="text4242" />
    <path
       style="color:#000000;font-style:normal;font-variant:normal;font-weight:normal;font-stretch:normal;font-size:medium;line-height:normal;font-family:sans-serif;text-indent:0;text-align:start;text-decoration:none;text-decoration-line:none;text-decoration-style:solid;text-decoration-color:#000000;letter-spacing:normal;word-spacing:normal;text-transform:none;direction:ltr;block-progression:tb;writing-mode:lr-tb;baseline-shift:baseline;text-anchor:start;white-space:normal;clip-rule:nonzero;display:inline;overflow:visible;visibility:visible;opacity:1;isolation:auto;mix-blend-mode:normal;color-interpolation:sRGB;color-interpolation-filters:linearRGB;solid-color:#000000;solid-opacity:1;fill:#333333;fill-opacity:1;fill-rule:evenodd;stroke:none;stroke-width:2.5;stroke-linecap:butt;stroke-linejoin:bevel;stroke-miterlimit:17;stroke-dasharray:none;stroke-dashoffset:0;stroke-opacity:1;color-rendering:auto;image-rendering:auto;shape-rendering:auto;text-rendering:auto;enable-background:accumulate"
       d="m 272.34252,1029.1635 -4.89496,8.4789 c -1.21857,2.1104 -0.49731,4.8088 1.61328,6.0273 2.11046,1.2186 4.81086,0.4953 6.0293,-1.6152 1.21861,-2.1106 0.58371,-4.809 -1.52685,-6.0274 -0.68423,-0.3951 -1.45459,-0.5997 -2.33253,-0.4355 l 3.59531,-6.2294 z m -1.24652,8.4847 c 0.13857,-0.011 0.28065,-0.01 0.42968,0 0.26967,0.035 0.55498,0.1289 0.8086,0.2754 l 0.002,0.01 c 0.13176,0.077 0.24829,0.167 0.35742,0.2656 0.10017,0.092 0.19369,0.1904 0.28125,0.2989 0.17276,0.2447 0.29839,0.4858 0.375,0.7715 0.0584,0.2753 0.0695,0.5481 0.0527,0.8281 -0.0273,0.2983 -0.10752,0.5647 -0.25391,0.8183 -0.1569,0.2717 -0.35762,0.4938 -0.5918,0.6485 -0.24464,0.1727 -0.48821,0.2978 -0.75586,0.3847 -0.20847,0.055 -0.40957,0.068 -0.61523,0.055 -0.35025,0.01 -0.70241,-0.062 -1.02149,-0.2461 -0.14029,-0.081 -0.26304,-0.1824 -0.375,-0.291 -0.009,-0.01 -0.009,-0.016 -0.0176,-0.022 -0.30953,-0.2735 -0.51863,-0.6183 -0.63086,-1.0371 -0.15313,-0.5715 -0.0676,-1.0992 0.24609,-1.6426 0.002,-2e-4 0.004,-0.011 0.006,-0.012 l 0.002,0 0.0176,-0.031 c 0.14252,-0.2384 0.31671,-0.4573 0.54883,-0.621 0.21609,-0.1652 0.45892,-0.2919 0.72656,-0.379 0.13381,-0.043 0.26963,-0.068 0.40821,-0.078 z"
       id="path4275"
       inkscape:connector-curvature="0"
       sodipodi:nodetypes="ccccccccccccccccccccccccccccccsc"
       inkscape:export-filename="C:\Users\agred\Desktop\path4490.png"
       inkscape:export-xdpi="273.50751"
       inkscape:export-ydpi="273.50751" />
    <path
       style="color:#000000;font-style:normal;font-variant:normal;font-weight:normal;font-stretch:normal;font-size:medium;line-height:normal;font-family:sans-serif;text-indent:0;text-align:start;text-decoration:none;text-decoration-line:none;text-decoration-style:solid;text-decoration-color:#000000;letter-spacing:normal;word-spacing:normal;text-transform:none;direction:ltr;block-progression:tb;writing-mode:lr-tb;baseline-shift:baseline;text-anchor:start;white-space:normal;clip-rule:nonzero;display:inline;overflow:visible;visibility:visible;opacity:1;isolation:auto;mix-blend-mode:normal;color-interpolation:sRGB;color-interpolation-filters:linearRGB;solid-color:#000000;solid-opacity:1;fill:#333333;fill-opacity:1;fill-rule:evenodd;stroke:none;stroke-width:2.5;stroke-linecap:butt;stroke-linejoin:bevel;stroke-miterlimit:17;stroke-dasharray:none;stroke-dashoffset:0;stroke-opacity:1;color-rendering:auto;image-rendering:auto;shape-rendering:auto;text-rendering:auto;enable-background:accumulate"
       d="m 277.07739,1044.2573 c -0.0762,0.012 -0.15427,0 -0.2362,0 -0.14822,-0.02 -0.30506,-0.071 -0.44446,-0.1514 l -10e-4,-0.01 c -0.0723,-0.043 -0.13648,-0.092 -0.19646,-0.146 -0.055,-0.05 -0.10645,-0.1048 -0.15461,-0.1643 -0.095,-0.1345 -0.16402,-0.2671 -0.20613,-0.4241 -0.0322,-0.1513 -0.0382,-0.3013 -0.0289,-0.4553 0.015,-0.164 0.0591,-0.3103 0.13957,-0.4498 0.0862,-0.1493 0.19658,-0.2714 0.3253,-0.3564 0.13447,-0.095 0.26837,-0.1637 0.4155,-0.2115 0.11459,-0.03 0.22513,-0.038 0.33818,-0.03 0.19253,0 0.3861,0.034 0.56151,0.1353 0.077,0.045 0.14458,0.1003 0.20612,0.1601 0.005,0 0.005,0.012 0.009,0.013 0.17015,0.1503 0.2851,0.3399 0.34678,0.5702 0.0841,0.314 0.0372,0.6041 -0.13527,0.9029 -0.001,10e-5 -0.002,0.01 -0.003,0.01 l -0.001,0 -0.009,0.018 c -0.0784,0.131 -0.17409,0.2512 -0.30169,0.3412 -0.11877,0.091 -0.25226,0.1605 -0.39938,0.2084 -0.0736,0.024 -0.14821,0.038 -0.22438,0.043 z"
       id="path4302"
       inkscape:connector-curvature="0"
       inkscape:export-filename="C:\Users\agred\Desktop\path4490.png"
       inkscape:export-xdpi="273.50751"
       inkscape:export-ydpi="273.50751" />
    <path
       style="color:#000000;font-style:normal;font-variant:normal;font-weight:normal;font-stretch:normal;font-size:medium;line-height:normal;font-family:sans-serif;text-indent:0;text-align:start;text-decoration:none;text-decoration-line:none;text-decoration-style:solid;text-decoration-color:#000000;letter-spacing:normal;word-spacing:normal;text-transform:none;direction:ltr;block-progression:tb;writing-mode:lr-tb;baseline-shift:baseline;text-anchor:start;white-space:normal;clip-rule:nonzero;display:inline;overflow:visible;visibility:visible;opacity:1;isolation:auto;mix-blend-mode:normal;color-interpolation:sRGB;color-interpolation-filters:linearRGB;solid-color:#000000;solid-opacity:1;fill:#ffffff;fill-opacity:1;fill-rule:evenodd;stroke:none;stroke-width:2.5;stroke-linecap:butt;stroke-linejoin:bevel;stroke-miterlimit:17;stroke-dasharray:none;stroke-dashoffset:0;stroke-opacity:1;color-rendering:auto;image-rendering:auto;shape-rendering:auto;text-rendering:auto;enable-background:accumulate"
       d="m 36.706454,752.21319 c 0,0 0.0393,1.56812 0.0194,2.35811 l -4.72591,75.22646 12.9259,0 2.62984,-48.85063 c 0.0298,-1.14475 0.12038,-2.18068 -0.0486,-3.43523 0,0 0.78116,1.75458 1.19364,2.6201 5.68414,11.92146 8.68174,18.24017 17.14721,35.41038 l 5.21113,0 5.21113,0 c 8.46536,-17.17021 11.46317,-23.48892 17.1472,-35.41038 0.41239,-0.86552 1.19359,-2.6201 1.19359,-2.6201 -0.16645,1.25455 -0.0689,2.29048 -0.0485,3.43523 l 2.62978,48.85063 12.925946,0 -4.71621,-75.22646 c -0.0199,-0.78999 0.01,-2.35811 0.01,-2.35811 l -12.673586,0 c -0.47698,1.33455 -0.86999,2.47626 -1.37802,3.68759 -5.99686,14.29741 -10.58906,25.41502 -19.25301,42.10626 -0.40593,0.93408 -0.7577,1.61571 -1.04801,2.77536 -0.29016,-1.15965 -0.64218,-1.84128 -1.04806,-2.77536 -8.66396,-16.69124 -13.25611,-27.80885 -19.25301,-42.10626 -0.50784,-1.21133 -0.9009,-2.35304 -1.37797,-3.68759 l -12.67365,0 z m 167.784596,0 -11.25683,0.98014 0,37.90434 c -2.5641,-2.56426 -6.47234,-4.25092 -10.16022,-4.25042 -12.10843,-5e-4 -21.9221,9.81287 -21.92165,21.92165 -4.5e-4,12.10828 9.81322,21.93184 21.92165,21.93134 2.92611,0 6.7862,-0.90487 10.16022,-4.27948 l 0.60164,3.377 10.65519,0 0,-77.58457 z m 133.38337,0 0,10.76186 0,66.82271 11.25677,0 4.95883,0 c 24.67471,10e-4 44.37702,-6.57713 44.37702,-39.77727 0,-26.6561 -13.81188,-37.80829 -38.48659,-37.8073 l -22.10603,0 z m 169.73509,0 -11.26652,0.98014 0,76.60443 11.26652,0 0,-9.51973 9.03455,-6.73468 12.14957,16.25441 15.2064,0 -19.68,-24.63879 16.76875,-18.32141 -15.76924,0 -17.71003,19.88376 0,-54.50813 z m -158.47832,10.76186 4.80357,0 c 18.18959,-4.4e-4 32.24141,2.04912 32.76117,26.12358 0.5601,25.94163 -14.10354,29.92852 -32.30506,29.92758 l -5.25968,0 0,-56.05116 z m -213.26781,23.86251 c -12.10843,-5e-4 -21.92205,9.81287 -21.92165,21.92165 -4e-4,12.10828 9.81322,21.93184 21.92165,21.93134 12.10833,5e-4 21.92195,-9.82306 21.9216,-21.93134 3.5e-4,-12.10878 -9.81327,-21.92215 -21.9216,-21.92165 z m 94.52801,0 c -12.10838,-5e-4 -21.92205,9.81287 -21.92165,21.92165 -4e-4,12.10828 9.81327,21.93184 21.92165,21.93134 7.42863,5e-4 13.97754,-3.71277 17.94291,-9.36446 l -8.57844,-6.00689 c -1.86221,3.16643 -5.03908,4.53183 -8.85987,4.53183 -5.39799,0 -9.85207,-2.83568 -11.46058,-7.40423 l 21.53346,0 9.31597,0 1.65944,0 c 0.2047,-1.20338 0.36876,-2.42608 0.36876,-3.68759 5e-4,-12.10878 -9.81322,-21.92215 -21.92165,-21.92165 z m 193.7625,0 c -12.10838,-5e-4 -21.93174,9.81287 -21.93134,21.92165 -4e-4,12.10828 9.82296,21.93184 21.93134,21.93134 7.42863,5e-4 13.96785,-3.71327 17.93327,-9.36446 l -8.57844,-6.00689 c -1.8623,3.16643 -5.02934,4.53183 -8.85018,4.53183 -5.39795,0 -9.86181,-2.83518 -11.47032,-7.40423 l 21.53351,0 9.31597,0 1.66908,0 c 0.2047,-1.20288 0.36876,-2.42608 0.36876,-3.68759 4e-4,-12.10878 -9.81322,-21.92215 -21.92165,-21.92165 z m 47.93846,0 c -12.10838,-5e-4 -21.92205,9.81287 -21.92166,21.92165 -3.9e-4,12.10828 9.81328,21.93184 21.92166,21.93134 7.08386,0 13.32358,-3.41402 17.33158,-8.62699 l -9.03455,-6.93843 c -1.83657,2.80274 -4.85594,4.63657 -8.28735,4.63856 -5.60916,0 -10.16091,-4.88187 -10.16022,-10.91713 -7.4e-4,-6.03328 4.55106,-10.91047 10.16022,-10.90749 3.22418,9.9e-4 6.05971,1.64209 7.91858,4.16307 l 8.79194,-7.37512 c -4.02166,-4.78617 -9.97976,-7.88996 -16.7202,-7.88946 z m -195.39282,0.73753 c -3.68789,-5e-4 -7.59612,1.69585 -10.16023,4.2601 l -1.00925,-3.17324 -10.24757,0.49491 0,40.62152 11.25682,0 0,-21.57231 c 0.59215,-6.83221 6.11878,-10.02439 10.15054,-10.02439 2.43909,0 4.46247,0.76744 6.06507,2.03789 l 5.4052,-9.34509 c -3.34123,-2.05995 -7.24708,-3.29989 -11.46058,-3.29939 z m 36.65251,0 c -3.68793,-5e-4 -7.58638,1.69585 -10.15053,4.2601 l -1.00921,-3.17324 -10.25731,0.49491 0,40.62152 11.26652,0 0,-21.57231 c 0,-6.99717 3.9213,-10.02439 8.66579,-10.02439 6.70119,0 9.16071,4.74762 9.16071,11.46059 l 0,20.13611 11.28594,0 0,-20.24284 c 0,-15.76113 -7.22483,-21.96045 -18.96191,-21.96045 z m -82.95096,9.35477 c 5.35775,0 8.578,3.19024 9.91761,7.2684 l -20.68921,0 c 1.58555,-4.08313 5.29192,-7.2684 10.7716,-7.2684 z m 193.76255,0 c 5.35775,0 8.56831,3.18974 9.90792,7.2684 l -20.68926,0 c 1.58545,-4.08363 5.30161,-7.2684 10.78134,-7.2684 z m -241.07994,0.50461 c 4.0317,0 9.55833,3.20136 10.15053,10.03407 0.13167,1.51887 0.0724,1.85147 -0.097,3.36736 -0.60472,5.42861 -4.5136,9.53916 -10.0535,9.53916 -5.43666,0 -10.16023,-4.26383 -10.16023,-11.53824 0,-6.28816 3.75909,-11.40235 10.16023,-11.40235 z m -47.21062,0.49491 c 5.60469,0 10.15123,4.87914 10.15053,10.90744 7e-4,6.03079 -4.54584,10.9142 -10.15053,10.91718 -5.60916,0 -10.17066,-4.88242 -10.16996,-10.91718 -7e-4,-6.03377 4.5608,-10.91042 10.16996,-10.90744 z"
       id="path4200-7"
       inkscape:connector-curvature="0" />
    <text
       xml:space="preserve"
       style="font-style:normal;font-weight:normal;font-size:1.25px;line-height:125%;font-family:sans-serif;letter-spacing:0px;word-spacing:0px;fill:#000000;fill-opacity:1;stroke:none;stroke-width:1px;stroke-linecap:butt;stroke-linejoin:miter;stroke-opacity:1"
       x="151.40578"
       y="1021.9799"
       id="text4369"
       sodipodi:linespacing="125%"><tspan
         sodipodi:role="line"
         id="tspan4371"
         x="151.40578"
         y="1021.9799"
         style="font-style:normal;font-variant:normal;font-weight:bold;font-stretch:normal;font-size:10.00000095px;font-family:'Unity Text';-inkscape-font-specification:'Unity Text Bold'">ModernDeck 6.1 Beta</tspan></text>
    <path
       style="color:#000000;font-style:normal;font-variant:normal;font-weight:normal;font-stretch:normal;font-size:medium;line-height:normal;font-family:sans-serif;text-indent:0;text-align:start;text-decoration:none;text-decoration-line:none;text-decoration-style:solid;text-decoration-color:#000000;letter-spacing:normal;word-spacing:normal;text-transform:none;direction:ltr;block-progression:tb;writing-mode:lr-tb;baseline-shift:baseline;text-anchor:start;white-space:normal;clip-rule:nonzero;display:inline;overflow:visible;visibility:visible;opacity:1;isolation:auto;mix-blend-mode:normal;color-interpolation:sRGB;color-interpolation-filters:linearRGB;solid-color:#000000;solid-opacity:1;fill:#333333;fill-opacity:1;fill-rule:evenodd;stroke:none;stroke-width:2.5;stroke-linecap:butt;stroke-linejoin:bevel;stroke-miterlimit:17;stroke-dasharray:none;stroke-dashoffset:0;stroke-opacity:1;color-rendering:auto;image-rendering:auto;shape-rendering:auto;text-rendering:auto;enable-background:accumulate"
       d="m 288.68979,1028.4471 0,15.6347 2.25,0 4.41211,0 0.002,0 c 2.43621,-5e-4 4.60946,-1.1361 4.60937,-4.416 5e-5,-1.7143 -0.92382,-2.9067 -2.19336,-3.582 1.02385,-0.7043 1.6934,-1.8185 1.69336,-3.2246 7e-5,-2.4371 -1.9751,-4.4122 -4.41211,-4.4121 l -4.11133,0 -2.25,0 z m 2.25,2.2324 4.11133,0 0.002,0 c 1.12804,0 2.04311,0.982 2.04297,2.1953 1.4e-4,1.2138 -0.91493,2.1967 -2.04297,2.1973 l -0.002,0 -2.72266,0 -1.38671,0 -0.002,0 0,-4.3926 z m 0,6.625 0.002,0 1.38671,0 2.72461,0 0.30079,0 c 1.12804,-2e-4 2.24218,0.6946 2.24218,2.3769 0,1.5683 -1.11414,2.1986 -2.24218,2.1992 l -0.002,0 -4.41211,0 0,-4.5761 z"
       id="path4198-2"
       inkscape:connector-curvature="0"
       inkscape:export-filename="C:\Users\agred\Desktop\path4490.png"
       inkscape:export-xdpi="273.50751"
       inkscape:export-ydpi="273.50751" />
    <path
       sodipodi:nodetypes="cccccsccccccsccs"
       inkscape:connector-curvature="0"
       id="path4451"
       d="m 305.27474,1035.4178 c -2.43702,-10e-5 -4.41415,1.975 -4.41407,4.4121 -8e-5,2.437 1.97705,4.4141 4.41407,4.414 1.49514,10e-5 2.81126,-0.7473 3.60937,-1.8847 l -1.72656,-1.209 c -0.37482,0.6373 -1.01224,0.912 -1.78125,0.912 -1.08643,0 -1.98485,-0.5705 -2.30859,-1.4901 l 4.33398,0 1.875,0 0.33594,0 c 0.0412,-0.2421 0.0742,-0.4883 0.0742,-0.7422 8e-5,-2.4371 -1.97508,-4.4122 -4.41211,-4.4121 z m 0.002,2.0312 c 1.07834,0 1.72452,0.642 1.99414,1.4629 l -4.16406,0 c 0.3191,-0.8219 1.06703,-1.4629 2.16992,-1.4629 z"
       style="color:#000000;font-style:normal;font-variant:normal;font-weight:normal;font-stretch:normal;font-size:medium;line-height:normal;font-family:sans-serif;text-indent:0;text-align:start;text-decoration:none;text-decoration-line:none;text-decoration-style:solid;text-decoration-color:#000000;letter-spacing:normal;word-spacing:normal;text-transform:none;direction:ltr;block-progression:tb;writing-mode:lr-tb;baseline-shift:baseline;text-anchor:start;white-space:normal;clip-rule:nonzero;display:inline;overflow:visible;visibility:visible;opacity:1;isolation:auto;mix-blend-mode:normal;color-interpolation:sRGB;color-interpolation-filters:linearRGB;solid-color:#000000;solid-opacity:1;fill:#333333;fill-opacity:1;fill-rule:evenodd;stroke:none;stroke-width:2.5;stroke-linecap:butt;stroke-linejoin:bevel;stroke-miterlimit:17;stroke-dasharray:none;stroke-dashoffset:0;stroke-opacity:1;color-rendering:auto;image-rendering:auto;shape-rendering:auto;text-rendering:auto;enable-background:accumulate"
       inkscape:export-filename="C:\Users\agred\Desktop\path4490.png"
       inkscape:export-xdpi="273.50751"
       inkscape:export-ydpi="273.50751" />
    <path
       style="color:#000000;font-style:normal;font-variant:normal;font-weight:normal;font-stretch:normal;font-size:medium;line-height:normal;font-family:sans-serif;text-indent:0;text-align:start;text-decoration:none;text-decoration-line:none;text-decoration-style:solid;text-decoration-color:#000000;letter-spacing:normal;word-spacing:normal;text-transform:none;direction:ltr;block-progression:tb;writing-mode:lr-tb;baseline-shift:baseline;text-anchor:start;white-space:normal;clip-rule:nonzero;display:inline;overflow:visible;visibility:visible;opacity:1;isolation:auto;mix-blend-mode:normal;color-interpolation:sRGB;color-interpolation-filters:linearRGB;solid-color:#000000;solid-opacity:1;fill:#333333;fill-opacity:1;fill-rule:evenodd;stroke:none;stroke-width:2.5;stroke-linecap:butt;stroke-linejoin:bevel;stroke-miterlimit:17;stroke-dasharray:none;stroke-dashoffset:0;stroke-opacity:1;color-rendering:auto;image-rendering:auto;shape-rendering:auto;text-rendering:auto;enable-background:accumulate"
       d="m 314.11015,1032.8435 -2.36719,0.8125 0,1.7715 -1.39258,0 0,2.2344 1.39258,0 0,2.2051 c 0,2.9217 1.41729,4.3945 3.55273,4.3945 0.65769,0 1.23088,-0.1255 1.73828,-0.3262 l -1.05078,-2.2578 c -0.22461,0.1803 -0.48751,0.2852 -0.82617,0.2852 -0.80217,0 -1.04687,-0.8623 -1.04687,-2.2949 l 0,-2.0059 2.07226,0 0,-2.2344 -2.07226,0 0,-2.584 z"
       id="path4194-3"
       inkscape:connector-curvature="0"
       inkscape:export-filename="C:\Users\agred\Desktop\path4490.png"
       inkscape:export-xdpi="273.50751"
       inkscape:export-ydpi="273.50751" />
    <path
       id="path4490"
       d="m 325.75663,1035.4266 -2.26563,0.2002 0,0.848 c -0.51607,-0.5161 -1.193,-1.0552 -2.24462,-1.0551 -2.43703,-10e-5 -4.2125,1.975 -4.21241,4.4121 -9e-5,2.437 1.77538,4.4142 4.21241,4.4141 0.58893,0 1.56554,-0.1822 2.24462,-0.8613 l 0.1211,0.6796 2.14453,0 z m -4.30859,2.124 c 0.81145,0 1.92377,0.6443 2.04296,2.0195 0.0265,0.3057 0.0146,0.3726 -0.0195,0.6777 -0.12171,1.0926 -0.90843,1.92 -2.02343,1.92 -1.09422,0 -2.04493,-0.8582 -2.04493,-2.3223 0,-1.2656 0.75659,-2.2949 2.04493,-2.2949 z"
       style="color:#000000;font-style:normal;font-variant:normal;font-weight:normal;font-stretch:normal;font-size:medium;line-height:normal;font-family:sans-serif;text-indent:0;text-align:start;text-decoration:none;text-decoration-line:none;text-decoration-style:solid;text-decoration-color:#000000;letter-spacing:normal;word-spacing:normal;text-transform:none;direction:ltr;block-progression:tb;writing-mode:lr-tb;baseline-shift:baseline;text-anchor:start;white-space:normal;clip-rule:nonzero;display:inline;overflow:visible;visibility:visible;opacity:1;isolation:auto;mix-blend-mode:normal;color-interpolation:sRGB;color-interpolation-filters:linearRGB;solid-color:#000000;solid-opacity:1;fill:#333333;fill-opacity:1;fill-rule:evenodd;stroke:none;stroke-width:2.5;stroke-linecap:butt;stroke-linejoin:bevel;stroke-miterlimit:17;stroke-dasharray:none;stroke-dashoffset:0;stroke-opacity:1;color-rendering:auto;image-rendering:auto;shape-rendering:auto;text-rendering:auto;enable-background:accumulate"
       inkscape:connector-curvature="0"
       sodipodi:nodetypes="cccccccccccccsscc"
       inkscape:export-filename="C:\Users\agred\Desktop\path4490.png"
       inkscape:export-xdpi="273.50751"
       inkscape:export-ydpi="273.50751" />
  </g>
</svg>
