<?xml version="1.0" encoding="UTF-8" standalone="no"?>
<!-- Created with Inkscape (http://www.inkscape.org/) -->

<svg
   xmlns:dc="http://purl.org/dc/elements/1.1/"
   xmlns:cc="http://creativecommons.org/ns#"
   xmlns:rdf="http://www.w3.org/1999/02/22-rdf-syntax-ns#"
   xmlns:svg="http://www.w3.org/2000/svg"
   xmlns="http://www.w3.org/2000/svg"
   xmlns:sodipodi="http://sodipodi.sourceforge.net/DTD/sodipodi-0.dtd"
   xmlns:inkscape="http://www.inkscape.org/namespaces/inkscape"
   width="640"
   height="206.48805"
   viewBox="0 0 640 206.48806"
   id="svg2"
   version="1.1"
   inkscape:version="0.91 r13725"
   sodipodi:docname="ModernDeck Final (Text).svg">
  <sodipodi:namedview
     id="base"
     pagecolor="#42a5f5"
     bordercolor="#666666"
     borderopacity="1.0"
     inkscape:pageopacity="1"
     inkscape:pageshadow="2"
     inkscape:zoom="1.4142136"
     inkscape:cx="321.20859"
     inkscape:cy="40.883504"
     inkscape:document-units="px"
     inkscape:current-layer="layer1"
     showgrid="false"
     units="px"
     inkscape:snap-bbox="true"
     inkscape:bbox-paths="true"
     inkscape:bbox-nodes="true"
     inkscape:object-paths="true"
     inkscape:snap-intersection-paths="true"
     inkscape:object-nodes="true"
     inkscape:snap-smooth-nodes="true"
     inkscape:snap-midpoints="false"
     showguides="false"
     inkscape:guide-bbox="true"
     inkscape:snap-bbox-edge-midpoints="true"
     inkscape:snap-center="true"
     inkscape:window-width="1920"
     inkscape:window-height="1001"
     inkscape:window-x="-9"
     inkscape:window-y="-9"
     inkscape:window-maximized="1"
     fit-margin-top="64"
     fit-margin-left="64"
     fit-margin-right="64"
     fit-margin-bottom="64"
     inkscape:snap-page="true">
    <inkscape:grid
       type="xygrid"
       id="grid4136"
       originx="32.000019"
       originy="-157.66145" />
    <sodipodi:guide
       position="71.878129,-131.57574"
       orientation="0,1"
       id="guide4205" />
    <sodipodi:guide
       position="70.787129,-149.56145"
       orientation="0,1"
       id="guide4210"
       inkscape:label=""
       inkscape:color="rgb(0,0,255)" />
    <sodipodi:guide
       position="78.900419,-141.36457"
       orientation="0,1"
       id="guide4215" />
    <sodipodi:guide
       position="79.097689,-140.7259"
       orientation="0,1"
       id="guide4220" />
    <sodipodi:guide
       position="86.937529,-149.3802"
       orientation="0,1"
       id="guide4222" />
    <sodipodi:guide
       position="92.660149,-147.36145"
       orientation="0,1"
       id="guide4245"
       inkscape:label=""
       inkscape:color="rgb(0,0,255)" />
    <sodipodi:guide
       position="84.985909,-142.96145"
       orientation="0,1"
       id="guide4247"
       inkscape:label=""
       inkscape:color="rgb(0,0,255)" />
    <sodipodi:guide
       position="103.98444,-145.16145"
       orientation="1,0"
       id="guide4284" />
    <sodipodi:guide
       position="106.35549,-145.1439"
       orientation="1,0"
       id="guide4286" />
    <sodipodi:guide
       position="118.65894,-149.08332"
       orientation="-0.8660254,0.5"
       id="guide4313"
       inkscape:label=""
       inkscape:color="rgb(0,0,255)" />
    <sodipodi:guide
       position="113.61322,-145.88644"
       orientation="0,1"
       id="guide4315" />
    <sodipodi:guide
       position="130.7383,-145.2923"
       orientation="1,0"
       id="guide4398" />
    <sodipodi:guide
       position="133.11135,-145.2923"
       orientation="1,0"
       id="guide4400" />
    <sodipodi:guide
       position="171.80471,-144.41535"
       orientation="-0.73727734,0.67559021"
       id="guide4459"
       inkscape:label=""
       inkscape:color="rgb(0,0,255)" />
    <sodipodi:guide
       position="167.76452,-141.36457"
       orientation="0.76604444,0.64278761"
       id="guide4461"
       inkscape:label=""
       inkscape:color="rgb(0,0,255)" />
    <sodipodi:guide
       position="136.44532,-133.74544"
       orientation="0,1"
       id="guide4493" />
    <sodipodi:guide
       position="69.000019,-156.68195"
       orientation="0.06104854,0.9981348"
       id="guide4501"
       inkscape:label=""
       inkscape:color="rgb(0,0,255)" />
    <sodipodi:guide
       position="69.671969,-153.66145"
       orientation="0.034899497,0.99939083"
       id="guide4505"
       inkscape:label=""
       inkscape:color="rgb(0,0,255)" />
  </sodipodi:namedview>
  <defs
     id="defs4" />
  <metadata
     id="metadata7">
    <rdf:RDF>
      <cc:Work
         rdf:about="">
        <dc:format>image/svg+xml</dc:format>
        <dc:type
           rdf:resource="http://purl.org/dc/dcmitype/StillImage" />
        <dc:title></dc:title>
      </cc:Work>
    </rdf:RDF>
  </metadata>
  <g
     inkscape:label="Layer 1"
     inkscape:groupmode="layer"
     id="layer1"
     transform="translate(32.000019,-688.21268)">
    <rect
       style="fill:#42a5f5;fill-opacity:1;stroke:none"
       id="rect4159"
       width="640"
       height="206.48805"
       x="-32.00005"
       y="688.21271" />
    <text
       xml:space="preserve"
       style="font-style:normal;font-weight:normal;font-size:1.25px;line-height:125%;font-family:sans-serif;letter-spacing:0px;word-spacing:0px;fill:#000000;fill-opacity:1;stroke:none;stroke-width:1px;stroke-linecap:butt;stroke-linejoin:miter;stroke-opacity:1"
       x="5"
       y="1036.3622"
       id="text4161"
       sodipodi:linespacing="125%"><tspan
         sodipodi:role="line"
         id="tspan4163"
         x="5"
         y="1036.3622" /></text>
    <text
       xml:space="preserve"
       style="font-style:normal;font-weight:normal;font-size:0.3125px;line-height:125%;font-family:sans-serif;letter-spacing:0px;word-spacing:0px;fill:#000000;fill-opacity:1;stroke:none;stroke-width:1px;stroke-linecap:butt;stroke-linejoin:miter;stroke-opacity:1"
       x="41.355469"
       y="1049.4755"
       id="text5018"
       sodipodi:linespacing="125%"><tspan
         sodipodi:role="line"
         x="41.355469"
         y="1049.4755"
         id="tspan5022" /></text>
    <path
       style="color:#000000;font-style:normal;font-variant:normal;font-weight:normal;font-stretch:normal;font-size:medium;line-height:normal;font-family:sans-serif;text-indent:0;text-align:start;text-decoration:none;text-decoration-line:none;text-decoration-style:solid;text-decoration-color:#000000;letter-spacing:normal;word-spacing:normal;text-transform:none;direction:ltr;block-progression:tb;writing-mode:lr-tb;baseline-shift:baseline;text-anchor:start;white-space:normal;clip-rule:nonzero;display:inline;overflow:visible;visibility:visible;opacity:1;isolation:auto;mix-blend-mode:normal;color-interpolation:sRGB;color-interpolation-filters:linearRGB;solid-color:#000000;solid-opacity:1;fill:#ffffff;fill-opacity:1;fill-rule:evenodd;stroke:none;stroke-width:2.5;stroke-linecap:butt;stroke-linejoin:bevel;stroke-miterlimit:17;stroke-dasharray:none;stroke-dashoffset:0;stroke-opacity:1;color-rendering:auto;image-rendering:auto;shape-rendering:auto;text-rendering:auto;enable-background:accumulate"
       d="m 36.710488,752.21269 c 0,0 0.02954,1.57542 0.0096,2.36494 l -4.720099,75.22111 12.929384,0 2.626585,-48.84866 c 0.02481,-1.14434 0.119268,-2.17656 -0.04846,-3.43106 0,0 0.779613,1.75198 1.192137,2.61691 5.684086,11.9222 8.680028,18.23516 17.145492,35.40557 l 5.214411,0 5.2144,0 c 8.465416,-17.17041 11.461393,-23.48337 17.145484,-35.40557 0.412378,-0.86493 1.192137,-2.61691 1.192137,-2.61691 -0.16624,1.2545 -0.07029,2.28672 -0.04846,3.43106 l 2.626582,48.84866 12.929379,0 -4.72009,-75.22111 c -0.0199,-0.78952 0.0103,-2.36494 0.0103,-2.36494 l -12.667691,0 c -0.476902,1.3344 -0.868252,2.48141 -1.376297,3.69278 -5.996869,14.29713 -10.594434,25.41182 -19.258399,42.10286 -0.405908,0.93393 -0.756445,1.62247 -1.046743,2.78168 -0.290308,-1.15921 -0.640891,-1.84775 -1.046765,-2.78168 -8.663956,-16.69104 -13.261519,-27.80573 -19.258386,-42.10286 -0.508051,-1.21137 -0.899158,-2.35838 -1.376292,-3.69278 l -12.667702,0 z m 167.781592,0 -11.26232,0.98861 0,37.89648 c -2.56413,-2.56406 -6.46953,-4.24567 -10.15745,-4.24518 -12.1084,-4.9e-4 -21.92417,9.81499 -21.92373,21.92375 -4.4e-4,12.10828 9.81533,21.92425 21.92373,21.92376 2.92609,0 6.78346,-0.89984 10.15745,-4.27426 l 0.60089,3.37289 10.66143,0 0,-77.58605 z m 133.37428,0 0,10.76807 0,66.81798 11.26232,0 4.95273,0 c 24.67466,0.001 44.38055,-6.57628 44.38055,-39.77675 0,-26.65604 -13.81304,-37.81028 -38.4877,-37.8093 l -22.1079,0 z m 169.73941,0 -11.26232,0.98861 0,76.59744 11.26232,0 0,-9.51775 9.03311,-6.73605 12.15403,16.2538 15.20708,0 -19.68487,-24.63755 16.7772,-18.31825 -15.76923,0.0103 -17.71732,19.87869 0,-54.5186 z m -158.47709,10.76807 4.79765,0 c 18.1896,-10e-4 32.24957,2.04586 32.76933,26.12045 0.56006,25.94146 -14.1026,29.931 -32.3041,29.92951 l -5.26288,0 0,-56.04996 z m 75.0176,23.86218 c -12.10841,-5.1e-4 -21.9242,9.81498 -21.92375,21.92373 -4.5e-4,12.10828 9.81534,21.92425 21.92375,21.92376 7.42862,4.9e-4 13.97486,-3.71098 17.94028,-9.36267 l -8.57761,-6.00917 c -1.86225,3.166 -5.03784,5.43731 -8.85869,5.43731 -5.39796,0 -9.85726,-3.73728 -11.46583,-8.30617 l 21.53603,0 9.31419,0 1.66708,0 c 0.20444,-1.20288 0.3683,-2.4216 0.3683,-3.68306 4e-4,-12.10875 -9.81533,-21.92424 -21.92375,-21.92373 z m -288.28464,0.0103 c -12.1084,-5e-4 -21.92418,9.81499 -21.92374,21.92374 -4.4e-4,12.10828 9.81534,21.92421 21.92374,21.92376 12.10837,4.5e-4 21.92414,-9.81548 21.92376,-21.92376 3.8e-4,-12.10875 -9.81539,-21.92424 -21.92376,-21.92374 z m 94.52799,0 c -12.10836,-5e-4 -21.9242,9.81499 -21.92376,21.92374 -4.4e-4,12.10828 9.8154,21.92425 21.92376,21.92376 7.42866,4.9e-4 13.97482,-3.71098 17.94023,-9.36266 l -8.57757,-6.00918 c -1.86219,3.16601 -5.03787,5.43736 -8.85868,5.43736 -5.398,0 -9.85737,-3.73734 -11.46588,-8.30623 l 21.53608,0 9.31418,0 1.66708,0 c 0.20444,-1.20289 0.36829,-2.4216 0.36829,-3.68305 4.6e-4,-12.10875 -9.81532,-21.92424 -21.92373,-21.92374 z m 241.70394,0 c -12.10842,-5e-4 -21.9242,9.81499 -21.92375,21.92374 -4.5e-4,12.10828 9.81533,21.92425 21.92375,21.92376 7.08383,0 13.32166,-3.41305 17.32965,-8.62604 l -9.03311,-6.93963 c -1.83658,2.80277 -4.85545,4.64109 -8.28686,4.64257 -5.60916,0.002 -10.16777,-4.87864 -10.16708,-10.91341 -7.4e-4,-6.03329 4.55792,-10.9164 10.16708,-10.91342 3.22418,10e-4 6.05968,1.64727 7.91855,4.16768 l 8.7908,-7.37577 c -4.02168,-4.78575 -9.9786,-7.88998 -16.71903,-7.88948 z m -195.39465,0.73661 c -3.6879,-4.9e-4 -7.59327,1.69079 -10.15738,4.25487 l -1.00803,-3.16934 -10.25436,0.49431 0,40.62968 11.26239,0 0,-21.57485 c 0.59216,-6.83223 6.11595,-10.0314 10.14771,-10.0314 2.43907,0 4.46467,0.77419 6.06729,2.04506 l 5.39854,-9.34327 c -3.34124,-2.05989 -7.24268,-3.30555 -11.45616,-3.30506 z m 36.6559,0 c -3.68792,-4.9e-4 -7.59333,1.69079 -10.15745,4.25487 l -1.00796,-3.16934 -10.25437,0.49431 0,40.62968 11.26233,0 0,-21.57485 c 0,-6.99698 3.92034,-10.0314 8.66485,-10.0314 6.70114,0 9.16878,4.75274 9.16878,11.46588 l 0,20.14037 11.28173,0 0,-15.63351 c 0,-19.1648 -5.02507,-26.57601 -18.95791,-26.57601 z m 110.80114,9.353 c 5.35771,0 8.57553,3.19052 9.91513,7.26913 l -20.69282,0 c 1.58548,-4.08356 5.29796,-7.26913 10.77769,-7.26913 z m -193.75666,0.0103 c 5.3577,0 8.57553,3.19054 9.91513,7.26913 l -20.69283,0 c 1.5855,-4.08356 5.29801,-7.26913 10.7777,-7.26913 z m -47.31725,0.50399 c 4.03173,0 9.55554,3.1992 10.14771,10.03144 0.1315,1.51948 0.0723,1.85683 -0.0969,3.37284 -0.60472,5.42839 -4.51088,9.53716 -10.05079,9.53716 -5.43664,0 -10.16714,-4.25933 -10.16714,-11.53373 0,-6.28785 3.766,-11.40771 10.16714,-11.40771 z m -47.21072,0.4943 c 5.60468,0.002 10.14848,4.88508 10.14774,10.91341 7.4e-4,6.03081 -4.54306,10.91045 -10.14774,10.91342 -5.60914,0.002 -10.16784,-4.87863 -10.16711,-10.91342 -7.3e-4,-6.03328 4.55797,-10.9164 10.16711,-10.91341 z"
       id="path4169-3"
       inkscape:connector-curvature="0" />
  </g>
</svg>
